<svg xmlns="http://www.w3.org/2000/svg" width="800.249" height="643.989" viewBox="0 0 800.249 643.989" role="img"><g transform="translate(-543.986 -268)"><path d="M.805,0,16.947,2.188v12.96H0Z" transform="matrix(0.951, -0.309, 0.309, 0.951, 1149.774, 614.104)" fill="#ed9da0"/><path d="M710.357,771.186s-12.713-31.293,25.426-54.763Z" transform="translate(329.179 139.165)" fill="#e6e6e6"/><path d="M694.574,770.717s-3.878-22.3-33.894-22.113Z" transform="translate(358.516 139.065)" fill="#e6e6e6"/><path d="M982.31,771.131s-16.8-41.343,33.591-72.349Z" transform="translate(328.334 139.22)" fill="#e6e6e6"/><path d="M961.458,770.511s-5.123-29.467-44.779-29.214" transform="translate(328.53 139.088)" fill="#e6e6e6"/><g transform="translate(543.986 268)"><circle cx="32.572" cy="32.572" r="32.572" transform="translate(61.35 173.745)" fill="#47d828"/><circle cx="10.53" cy="10.53" r="10.53" transform="translate(140.588 418.567)" fill="#47d828"/><path d="M700.143,228.212a829.677,829.677,0,0,0-123.366,1.9c-19.77,1.787-39.854,3.717-59.259,8.03-15.63,3.474-33.77,9.344-43.508,23.018a22.221,22.221,0,0,0-3.469,19.453c2.322,7.8,8.1,14.284,14.25,19.366,14.158,11.7,31.725,18.5,47.417,27.8,28.651,16.967,54.872,39.835,71.7,68.886,7.406,12.783,14.451,29.781,6.2,43.867-8.079,13.8-26.114,18.554-40.822,20.8-18.435,2.81-37.424,2.048-55.936.474a582.811,582.811,0,0,1-60.462-8.856c-39.153-7.518-77.949-17.081-117.645-21.43a340.714,340.714,0,0,0-59.982-1.735c-18.068,1.219-36.291,4.077-53.264,10.592-13.08,5.02-27.022,12.616-34.087,25.283-6.81,12.211-4.154,26.292,3.262,37.558,8.923,13.555,22.836,22.844,37.3,29.633,16.47,7.73,34.087,12.741,51.725,17,8.946,2.161,17.94,4.115,26.935,6.059,1.876.405,2.678-2.477.8-2.884-18.14-3.92-36.332-7.852-54.021-13.526-16.369-5.251-33.121-11.977-46.526-23-10.845-8.92-21.156-21.948-20.516-36.761.645-14.933,13.174-25.359,25.454-31.777,15.347-8.02,32.783-11.927,49.868-13.969a303,303,0,0,1,58.907-.8c39.6,3.013,78.321,12.035,117.151,19.9,37.722,7.644,76.621,14.723,115.279,12.762,15.322-.777,31.74-2.973,45.269-10.707,6.194-3.541,11.78-8.535,14.928-15.034a33.669,33.669,0,0,0,2.573-19.783c-2.194-14.724-10.939-28.377-19.665-40.1A193.811,193.811,0,0,0,563.6,345.995a260.592,260.592,0,0,0-43.713-28.476c-8.213-4.324-16.542-8.482-24.368-13.49-7.5-4.8-14.907-10.58-19.489-18.375-3.964-6.742-4.691-14.437-.562-21.275,4.176-6.916,11.37-11.74,18.464-15.265,17.093-8.493,36.965-10.766,55.665-13.1a823.36,823.36,0,0,1,121.072-6.037q14.748.347,29.477,1.221c1.923.113,1.916-2.878,0-2.991Z" transform="translate(-183.986 -127.311)"/></g></g></svg>
