<svg xmlns="http://www.w3.org/2000/svg" width="960" height="676" viewBox="0 0 960 676.794" role="img">
  <g transform="translate(-558.166 -214.223)">
    <g transform="translate(777.438 291.174)">
      <path d="M444.629,173.676A91.593,91.593,0,1,0,286.35,260.683a89.014,89.014,0,0,0,6.824,7.037c.625.575,1.282,1.167,1.94,1.726,1.25,1.118,2.532,2.187,3.864,3.206a90.045,90.045,0,0,0,8.122,5.705A91.593,91.593,0,0,0,444.629,173.676Z" transform="translate(-266.534 -112.193)" fill="#e6e6e6"/>
      <ellipse cx="25.97" cy="25.971" rx="25.97" ry="25.971" transform="translate(69.859 63.304)" fill="#fff"/>
      <path d="M448.339,296.216l-64.481-1.46c-6.45-24.985-3.546-48.774,1.6-70.7l64.481,1.46a141.183,141.183,0,0,0-1.6,70.7Z" transform="translate(-244.755 -90.749)" fill="#47d828"/>
    </g>
    <g transform="translate(573.658 461.845)">
      <path d="M411.1,368.3a74.35,74.35,0,1,0-128.483,70.628A74.324,74.324,0,0,0,411.1,368.3Z" transform="translate(-266.534 -318.391)" fill="#e6e6e6"/>
      <path d="M436.617,478.813l-53.4-1.209c-5.341-20.69-2.936-40.39,1.326-58.544l53.4,1.209a116.913,116.913,0,0,0-1.325,58.544Z" transform="translate(-268.03 -319.716)" fill="#47d828"/>
    </g>
  </g>
</svg>
