<svg xmlns="http://www.w3.org/2000/svg" width="800" height="745" viewBox="0 0 799.88 745.456" role="img">
  <g transform="translate(-745.929 -179.752)">
    <path d="M815.13,754.1h-9.649V188.574a4.824,4.824,0,1,1,9.649,0Z" transform="translate(266.208 221.979)" fill="#e6e6e6"/>
    <path d="M930.357,716.394h-190.3a1.1,1.1,0,1,1,0-2.144h190.3a1.1,1.1,0,1,1,0,2.144Z" transform="translate(236.736 260.218)" fill="#ccc"/>
    <path d="M886.695,256.138H746.306a4.83,4.83,0,0,1-4.824-4.824V210.574a4.83,4.83,0,0,1,4.824-4.824h140.4a4.835,4.835,0,0,1,2.351.612l36.306,20.261a4.824,4.824,0,0,1,.019,8.415l-36.316,20.478A4.838,4.838,0,0,1,886.695,256.138Z" transform="translate(261.595 223.564)" fill="#47d828"/>
    <path d="M877.187,338.138H736.8a4.836,4.836,0,0,1-2.369-.622l-36.316-20.478a4.824,4.824,0,0,1,.019-8.415l36.306-20.261a4.834,4.834,0,0,1,2.351-.612h140.4a4.83,4.83,0,0,1,4.824,4.824v40.739a4.83,4.83,0,0,1-4.824,4.824Z" transform="translate(258.292 229.475)" fill="#e6e6e6"/>
    <path d="M877.687,418.638H737.3a4.836,4.836,0,0,1-2.369-.622l-36.316-20.478a4.824,4.824,0,0,1,.019-8.415l36.306-20.261a4.834,4.834,0,0,1,2.351-.612h140.4a4.83,4.83,0,0,1,4.824,4.824v40.739a4.83,4.83,0,0,1-4.824,4.824Z" transform="translate(258.328 235.278)" fill="#e6e6e6"/>
    <circle cx="21.999" cy="21.999" r="21.999" transform="translate(765.758 538.15)" fill="#ffb9b9"/>
  </g>
</svg>
